<svg xmlns="http://www.w3.org/2000/svg" width="171.637" height="50.321" viewBox="0 0 171.637 50.321">
  <g id="Founda_Logo" data-name="Founda Logo" transform="translate(-2.5 -8.9)">
    <path id="Path_3" data-name="Path 3" d="M23.7,27.211h5.19a2.854,2.854,0,0,1,2.815,2.9v7.918a2.835,2.835,0,0,1-2.815,2.815H23.7v15.4a2.929,2.929,0,0,1-2.9,2.9H10.418a2.854,2.854,0,0,1-2.815-2.9V40.934H5.4a2.913,2.913,0,0,1-2.9-2.815V30.2a2.929,2.929,0,0,1,2.9-2.9H7.6C7.6,19.557,9.8,9,23.878,9h6.07c1.847,0,1.672,1.672,1.672,2.639V20.7a2.128,2.128,0,0,1-2.287,2.111h-.88c-3.431-.088-4.751,2.023-4.751,4.4" transform="translate(0 -0.012)" fill="#f36"/>
    <path id="Path_4" data-name="Path 4" d="M39.8,8.9h0a2.854,2.854,0,0,1,2.815,2.9V27.2h2.2a2.913,2.913,0,0,1,2.9,2.815v7.918a2.854,2.854,0,0,1-2.815,2.9,2.911,2.911,0,0,0,2.815-2.9V30.014a2.854,2.854,0,0,0-2.9-2.815h-2.2V11.8A2.7,2.7,0,0,0,39.8,8.9M26.6,40.922h0" transform="translate(-2.898 0)" fill="#61f5e3"/>
    <path id="Path_5" data-name="Path 5" d="M39.387,8.9h-6.95c1.847,0,1.672,1.672,1.672,2.639V20.6A2.141,2.141,0,0,1,32,22.712H30.942c-3.343,0-4.751,1.935-4.839,4.135V27.2h5.19a2.854,2.854,0,0,1,2.815,2.9v7.918a2.835,2.835,0,0,1-2.815,2.815H26.1v15.4a2.929,2.929,0,0,1-2.9,2.9h2.727C40,59.133,42.2,48.488,42.2,40.834H44.49a2.911,2.911,0,0,0,2.815-2.9V30.014A2.854,2.854,0,0,0,44.4,27.2H42.2V11.8a2.7,2.7,0,0,0-2.815-2.9" transform="translate(-2.489 0)" fill="#61f5e3"/>
    <path id="Path_6" data-name="Path 6" d="M31.84,8.9H28.409a2.929,2.929,0,0,0-2.9,2.9V26.847c.176-2.2,1.5-4.135,4.839-4.135H31.4A2.141,2.141,0,0,0,33.511,20.6V11.539c0-.968.176-2.639-1.672-2.639M25.506,27.2h-5.19A2.835,2.835,0,0,0,17.5,30.014v7.918a2.913,2.913,0,0,0,2.815,2.9H30.7a2.835,2.835,0,0,0,2.815-2.815V30.1A2.913,2.913,0,0,0,30.7,27.2h-5.19m0,14.076c-.176,2.2-1.5,4.135-4.839,4.135H19.611A2.141,2.141,0,0,0,17.5,47.52v9.061c0,2.551.616,2.639,1.5,2.639H22.69a2.929,2.929,0,0,0,2.9-2.9V41.274Z" transform="translate(-1.804 0)" fill="#61305c"/>
    <path id="Path_7" data-name="Path 7" d="M75.109,27.982a.757.757,0,0,0,.7.7h2.375a1.577,1.577,0,0,1,1.584,1.584v1.847A1.577,1.577,0,0,1,78.188,33.7H76.6c-.88,0-1.584,2.9-1.584,6.422v8.8A1.577,1.577,0,0,1,73.438,50.5H71.063a1.577,1.577,0,0,1-1.584-1.584V33.612H67.9a1.561,1.561,0,0,1-1.5-1.584V30.181A1.561,1.561,0,0,1,67.9,28.6h1.584c0-4.487,1.935-8.8,7.83-8.8H78.54A1.091,1.091,0,0,1,79.6,20.944v2.375a1.165,1.165,0,0,1-1.144,1.144,3.175,3.175,0,0,0-3.343,3.519" transform="translate(-7.685 -1.311)" fill="#f2f5f7"/>
    <path id="Path_8" data-name="Path 8" d="M104.111,29.888a1.577,1.577,0,0,1,1.584,1.584v18.65a1.577,1.577,0,0,1-1.584,1.584h-2.375a1.561,1.561,0,0,1-1.5-1.584v-.528c0-.264-.264-.176-.616.352-.616.88-2.551,2.287-5.718,2.287-5.454,0-8.006-4.4-8.006-8.973V31.384A1.561,1.561,0,0,1,87.4,29.8h2.375a1.561,1.561,0,0,1,1.5,1.584V41.94c0,2.815,1.232,4.839,4.223,4.839,3.255,0,4.663-2.375,4.663-4.839V31.384a1.561,1.561,0,0,1,1.5-1.584h2.463Z" transform="translate(-10.03 -2.513)" fill="#f2f5f7"/>
    <path id="Path_9" data-name="Path 9" d="M133.894,38.349V49.962a1.577,1.577,0,0,1-1.584,1.584h-2.375a1.577,1.577,0,0,1-1.584-1.584V39.4c0-2.815-1.144-4.839-4.223-4.839-3.255,0-4.663,2.375-4.663,4.839V49.962a1.561,1.561,0,0,1-1.5,1.584H115.6a1.561,1.561,0,0,1-1.5-1.584V31.311a1.561,1.561,0,0,1,1.5-1.584h2.375a1.561,1.561,0,0,1,1.5,1.584v.528c0,.264.264.176.616-.352,0-1.232,2.551-2.287,5.718-2.287a9.23,9.23,0,0,1,8.094,9.149" transform="translate(-13.421 -2.441)" fill="#f2f5f7"/>
    <path id="Path_10" data-name="Path 10" d="M158.243,39.59c0-3.343-2.111-6.158-5.806-6.158s-5.894,2.815-5.894,6.158c0,3.255,2.111,6.158,5.894,6.158,3.695.088,5.806-2.815,5.806-6.158M160,20.5h2.375a1.577,1.577,0,0,1,1.584,1.584V49a1.577,1.577,0,0,1-1.584,1.584H160a1.561,1.561,0,0,1-1.5-1.584v-.528c0-.264-.352-.088-.7.352-.7.88-2.815,2.2-6.246,2.2-6.686,0-10.557-5.718-10.557-11.349,0-5.718,3.871-11.349,10.557-11.349,3.343,0,5.542,1.32,6.246,2.2.352.528.7-.7.7-2.639V22.172A1.531,1.531,0,0,1,160,20.5" transform="translate(-16.656 -1.395)" fill="#f2f5f7"/>
    <path id="Path_11" data-name="Path 11" d="M188.731,40.661c0-3.343-2.111-6.158-5.894-6.158-3.695,0-5.894,2.815-5.894,6.158,0,3.255,2.111,6.158,5.894,6.158,3.695.088,5.894-2.815,5.894-6.158M190.49,29.84h2.375a1.577,1.577,0,0,1,1.584,1.584v18.65a1.577,1.577,0,0,1-1.584,1.584H190.49a1.577,1.577,0,0,1-1.584-1.584V49.018a8.3,8.3,0,0,1-6.95,3.079c-6.686,0-10.557-5.718-10.557-11.349,0-5.718,3.871-11.349,10.557-11.349a8.42,8.42,0,0,1,6.95,3.079V31.423a1.577,1.577,0,0,1,1.584-1.584" transform="translate(-20.312 -2.465)" fill="#f2f5f7"/>
  </g>
</svg>
