<svg width="180" height="33" viewBox="0 0 180 33" fill="none" xmlns="http://www.w3.org/2000/svg">
<g clip-path="url(#clip0)">
<path d="M6.81329 7.40934L0 0H6.81329V7.40934Z" fill="#F7E800"/>
<path d="M6.81323 0H15.5237V7.40934L6.81323 0Z" fill="#F7911A"/>
<path d="M6.81323 0V7.40934H15.5237L6.81323 0Z" fill="#F7BF1A"/>
<path d="M15.5237 0L22.337 7.40934H15.5237V0Z" fill="#D94D73"/>
<path d="M22.337 7.40933H15.5237V16.3017H22.337V7.40933Z" fill="#C21AED"/>
<path d="M22.337 16.3017L15.5237 22.6016V16.3017H22.337Z" fill="#731AC4"/>
<path d="M15.5237 22.6016L6.78979 13.4679V22.6016H15.5237Z" fill="#8CFA94"/>
<path d="M6.78979 22.6016L15.5237 33V22.6016H6.78979Z" fill="#54C296"/>
<path d="M15.5237 22.6016L25.538 33H15.5237V22.6016Z" fill="#45D9ED"/>
<path d="M47.0469 8.08186H42.9766V15.0601H47.0469C49.7605 15.0601 50.9822 13.6633 50.9822 11.5192C50.9822 9.37519 49.7605 8.07036 47.0469 8.07036V8.08186ZM47.2231 4.1214C53.0673 4.1214 55.9864 7.42082 55.9864 11.4043C55.9864 14.2783 54.3536 17.2271 50.4594 18.2503L56.2684 27.8957H50.6298L45.2731 18.6354H42.9766V27.8957H38.1074V4.1329L47.2231 4.1214Z" fill="white"/>
<path d="M66.3004 24.0502C68.873 24.0502 71.3458 22.2108 71.3458 18.463C71.3458 14.7152 68.9435 12.8816 66.3709 12.8816C63.7983 12.8816 61.4665 14.6865 61.4665 18.463C61.4665 22.2395 63.6926 24.0502 66.3004 24.0502ZM66.3004 28.2003C60.7323 28.2003 56.5269 24.3893 56.5269 18.463C56.5269 12.5367 60.8733 8.72566 66.4414 8.72566C72.0095 8.72566 76.3559 12.5079 76.3559 18.463C76.3559 24.418 71.9037 28.2003 66.3004 28.2003Z" fill="white"/>
<path d="M75.7803 9.03606H80.7199L84.1324 23.4006L87.821 9.03606H92.9662L96.5843 23.3661L99.9968 9.03606H104.655L99.0218 27.8957H93.765L90.2526 14.721L86.7403 27.8957H81.4541L75.7803 9.03606Z" fill="white"/>
<path d="M114.099 12.916C111.491 12.916 109.024 14.8244 109.024 18.3998C109.024 21.9751 111.491 24.0157 114.099 24.0157C116.707 24.0157 119.233 22.0383 119.233 18.463C119.233 14.8876 116.801 12.916 114.117 12.916H114.099ZM112.866 8.72566C114.095 8.68676 115.317 8.93927 116.425 9.46171C117.534 9.98414 118.497 10.761 119.233 11.7262V9.03606H124.137V27.8957H119.233V25.1366C118.503 26.1208 117.538 26.9148 116.422 27.449C115.305 27.9832 114.072 28.2411 112.83 28.2003C107.961 28.2003 104.067 24.2858 104.067 18.3998C104.067 12.5137 107.961 8.72566 112.877 8.72566" fill="white"/>
<path d="M139.719 17.4801C139.719 14.4508 138.016 12.8126 135.443 12.8126C132.871 12.8126 131.091 14.4508 131.091 17.4801V27.8957H126.222V9.03606H131.091V11.387C131.787 10.5403 132.673 9.86255 133.681 9.40683C134.688 8.9511 135.79 8.72977 136.9 8.76015C141.387 8.76015 144.588 11.6342 144.588 16.8075V27.8957H139.719V17.4801Z" fill="white"/>
<path d="M162.403 12.9161C159.795 12.9161 157.322 14.8244 157.322 18.3998C157.322 21.9751 159.795 24.0157 162.403 24.0157C165.011 24.0157 167.513 22.0383 167.513 18.463C167.513 14.8877 165.081 12.9161 162.403 12.9161ZM161.152 8.72567C162.381 8.68478 163.602 8.93645 164.71 9.45908C165.818 9.9817 166.78 10.7597 167.513 11.7262V9.03607H172.423V27.8957H167.513V25.1366C166.784 26.12 165.819 26.9135 164.704 27.4476C163.589 27.9818 162.357 28.2402 161.117 28.2003C156.242 28.2003 152.347 24.2859 152.347 18.3998C152.347 12.5137 156.242 8.72567 161.158 8.72567" fill="white"/>
<path d="M174.538 9.00731H179.413V27.8669H174.538V9.00731ZM174.021 3.9662C173.992 3.38106 174.144 2.80108 174.456 2.30106C174.768 1.80103 175.225 1.4039 175.77 1.16088C176.315 0.917857 176.921 0.840089 177.512 0.937604C178.102 1.03512 178.649 1.30345 179.081 1.70798C179.514 2.11251 179.814 2.6347 179.94 3.20719C180.067 3.77968 180.016 4.37623 179.793 4.91989C179.57 5.46355 179.186 5.92939 178.69 6.25733C178.194 6.58528 177.609 6.76029 177.01 6.75979C176.624 6.77769 176.238 6.71867 175.876 6.58632C175.514 6.45397 175.183 6.25103 174.904 5.98982C174.624 5.7286 174.402 5.41455 174.25 5.0667C174.098 4.71885 174.02 4.34445 174.021 3.9662Z" fill="white"/>
<path d="M152.001 25.3435C152.002 24.7635 151.827 24.1961 151.499 23.7133C151.171 23.2304 150.703 22.8538 150.156 22.631C149.609 22.4082 149.006 22.3494 148.425 22.4618C147.843 22.5743 147.309 22.853 146.889 23.2628C146.47 23.6726 146.184 24.1949 146.068 24.7637C145.952 25.3325 146.011 25.9223 146.237 26.4583C146.464 26.9943 146.848 27.4525 147.341 27.7748C147.833 28.0972 148.413 28.2693 149.006 28.2693C149.799 28.2693 150.56 27.9612 151.122 27.4127C151.683 26.8642 151.999 26.12 152.001 25.3435Z" fill="#8CFA94"/>
</g>
<defs>
<clipPath id="clip0">
<rect width="180" height="33" fill="white"/>
</clipPath>
</defs>
</svg>
